<?xml version="1.0" encoding="utf-8"?>
<!-- Generator: Adobe Illustrator 23.0.1, SVG Export Plug-In . SVG Version: 6.00 Build 0)  -->
<svg version="1.1" id="Camada_1" xmlns="http://www.w3.org/2000/svg" xmlns:xlink="http://www.w3.org/1999/xlink" x="0px" y="0px"
	 viewBox="0 0 592.2 259.9" style="enable-background:new 0 0 592.2 259.9;" xml:space="preserve">
<style type="text/css">
	.st0{fill:#FFFFFF;}
	.st1{clip-path:url(#SVGID_2_);fill:#FFFFFF;}
	.st2{clip-path:url(#SVGID_2_);fill-rule:evenodd;clip-rule:evenodd;fill:#FFFFFF;}
	.st3{clip-path:url(#SVGID_2_);fill:#809D3A;}
</style>
<polygon class="st0" points="0,131.6 0,210.9 48.6,210.9 48.6,199.5 12.8,199.5 12.8,131.6 "/>
<g>
	<defs>
		<rect id="SVGID_1_" width="592.2" height="259.9"/>
	</defs>
	<clipPath id="SVGID_2_">
		<use xlink:href="#SVGID_1_"  style="overflow:visible;"/>
	</clipPath>
	<path class="st1" d="M208.2,177.3c2.6,0,5.1-0.5,7.2-1.5c2.2-1,4.1-2.3,5.7-4c1.6-1.7,2.9-3.5,3.8-5.7c0.9-2.1,1.4-4.3,1.4-6.6
		c0-2.3-0.5-4.5-1.4-6.6c-0.9-2.1-2.2-4-3.8-5.7c-1.6-1.7-3.6-3-5.7-4c-2.2-1-4.6-1.5-7.2-1.5h-5.4h-11.7h-12.9v-10.1h28.5
		c7.2,0,13.5,1.5,18.9,4.6c3.1,1.8,5.8,4,8,6.6c2.2,2.6,3.9,5.5,5,8.7c0.3,0.8,0.5,1.5,0.6,2.1c0,0.2,0,0.4,0.1,0.4
		c0.1,0.4,0.1,0.9,0.2,1.3c0,0.4,0.1,0.8,0.2,1.2v0.2c0.1,0.4,0.1,0.9,0.2,1.3c0,0.4,0.1,0.9,0.1,1.4v0.2c0,0.5,0,1-0.1,1.4
		c0,0.4-0.1,0.9-0.2,1.3l-0.4,2.7c-0.1,0.1-0.1,0.2-0.1,0.4c-0.1,0.4-0.2,0.7-0.2,1c-0.1,0.3-0.2,0.6-0.4,1c-1.1,3.3-2.8,6.3-5,8.9
		c-2.2,2.6-4.9,4.8-8,6.6c-2.6,1.4-5.6,2.6-8.7,3.4c-3.2,0.8-6.6,1.2-10.2,1.2h-15.7v5.5v17.9h-12.8v-33.6v-0.4l12.8,0.4h11.9H208.2
		z"/>
	<path class="st2" d="M131,131.8h12.6v52.9c0,3.7-0.8,7.1-2.3,10.3c-1.6,3.2-3.7,5.9-6.4,8.3c-2.7,2.3-5.9,4.2-9.5,5.6
		c-3.6,1.4-7.5,2.1-11.6,2.1c-4.1,0-7.9-0.7-11.4-2.1c-3.6-1.4-6.7-3.2-9.3-5.6c-2.7-2.3-4.8-5.1-6.3-8.3c-1.5-3.2-2.3-6.6-2.3-10.3
		v-52.9h12.6v52.9c0,2.1,0.4,4,1.3,5.9c0.9,1.8,2.1,3.5,3.6,4.9c1.5,1.4,3.3,2.5,5.4,3.3c2.1,0.8,4.3,1.2,6.6,1.2
		c2.4,0,4.6-0.4,6.7-1.2c2.1-0.8,3.9-1.9,5.5-3.3c1.6-1.4,2.8-3,3.7-4.9c0.9-1.8,1.3-3.8,1.3-5.9V131.8z"/>
	<polygon class="st1" points="549.2,158.2 520.2,210.9 506.2,210.9 549.2,131.7 592.2,210.9 584,210.9 578.2,210.9 549.2,210.9 
		549.2,198.6 571.5,198.6 	"/>
	<rect x="275.5" y="132.1" class="st1" width="60" height="11.1"/>
	<rect x="275.5" y="199.7" class="st1" width="60" height="11.1"/>
	<rect x="275.5" y="164.7" class="st1" width="30.8" height="11.1"/>
	<rect x="178.1" y="134.7" class="st1" width="12.7" height="15.4"/>
	<rect x="275.5" y="164.8" class="st1" width="12.7" height="41.9"/>
	<path class="st1" d="M384,179.6v31.2h-12.8v-46L384,179.6z M371.3,147l-0.1-16.8l49.8,54.3l49.8-54.3v80.6h-12.1v-50l-29.4,32.7
		l-8.3,9.2l-8.3-9.2L371.3,147z"/>
	<polygon class="st1" points="108.3,243.5 108.3,248.3 115.6,248.3 115.6,251.3 108.3,251.3 108.3,256.6 116.7,256.6 116.7,259.6 
		105.4,259.6 105.4,240.5 116.7,240.5 116.7,243.5 	"/>
	<polygon class="st1" points="159.3,240.5 159.3,259.9 159.2,259.9 147,247.2 147,259.6 144,259.6 144,240.2 144.2,240.2 
		156.3,252.9 156.3,240.5 	"/>
	<path class="st1" d="M205.3,250.7c0,5.7-4.1,9.2-9.1,9.2c-5.5,0-9.9-4.4-9.9-9.8c0-5.4,4.4-9.9,9.8-9.9c2.4,0,5.1,1.2,6.9,2.9
		l-1.7,2.5c-1.5-1.5-3.5-2.4-5.3-2.4c-3.5,0-6.8,2.9-6.8,6.9c0,3.7,3,6.8,7,6.8c3.3,0,5.7-2,5.7-4.9v-0.1h-5.9v-2.7h9
		C205.3,249.6,205.3,250.1,205.3,250.7"/>
	<polygon class="st1" points="235.3,243.5 235.3,248.3 242.5,248.3 242.5,251.3 235.3,251.3 235.3,256.6 243.6,256.6 243.6,259.6 
		232.3,259.6 232.3,240.5 243.6,240.5 243.6,243.5 	"/>
	<polygon class="st1" points="286.3,240.5 286.3,259.9 286.1,259.9 273.9,247.2 273.9,259.6 271,259.6 271,240.2 271.1,240.2 
		283.3,252.9 283.3,240.5 	"/>
	<polygon class="st1" points="328.4,240.5 328.4,259.6 325.4,259.6 325.4,251.5 317.1,251.5 317.1,259.6 314.1,259.6 314.1,240.5 
		317.1,240.5 317.1,248.6 325.4,248.6 325.4,240.5 	"/>
	<path class="st1" d="M368.2,256.7h-9l-1.3,2.9h-3.2l9-19.4h0.2l9,19.4h-3.2L368.2,256.7z M367.1,254.1l-3.3-7.4l-3.4,7.4H367.1z"/>
	<path class="st1" d="M409.6,259.6l-5.1-7.4h-2.3v7.4h-3l0-19.1h5.9c3.5,0,6.5,2.7,6.5,6.1c0,2.5-1.6,4.6-3.8,5.3l5.5,7.6H409.6z
		 M405.1,249.7c1.8,0,3.3-1.4,3.3-3.1c0-1.8-1.5-3.1-3.3-3.1h-3v6.2H405.1z"/>
	<rect x="439.5" y="240.5" class="st1" width="3" height="19.1"/>
	<path class="st1" d="M482.3,256.7h-9l-1.3,2.9h-3.2l9-19.4h0.2l9,19.4h-3.2L482.3,256.7z M481.2,254.1l-3.3-7.4l-3.4,7.4H481.2z"/>
	<path class="st3" d="M348.7,0l-12.5,0.1l-34.6,42.5l-5.4,6.7l-5.4-6.7L256.1,0.1L243.6,0L284,51.2l-40.4,51.2h45.1h15h45.1
		l-40.4-51.2L348.7,0z M325.8,89.9h-22.2h-15h-22.2l24.3-30.2l5.4-6.7l5.4,6.7L325.8,89.9z"/>
	<polygon class="st3" points="322.9,0.3 303.6,0.3 288.6,0.3 269.3,0.3 296.1,33.2 	"/>
</g>
</svg>
