<?xml version="1.0" encoding="utf-8"?>
<!-- Generator: Adobe Illustrator 23.0.1, SVG Export Plug-In . SVG Version: 6.00 Build 0)  -->
<svg version="1.1" id="Camada_1" xmlns="http://www.w3.org/2000/svg" xmlns:xlink="http://www.w3.org/1999/xlink" x="0px" y="0px"
	 viewBox="0 0 750.6 129.7" style="enable-background:new 0 0 750.6 129.7;" xml:space="preserve">
<style type="text/css">
	.st0{fill-rule:evenodd;clip-rule:evenodd;fill:#FFFFFF;}
	.st1{fill:#FFFFFF;}
</style>
<polygon class="st0" points="171.1,1.4 171.1,69.3 207,69.3 207,80.6 158.3,80.6 158.3,1.4 "/>
<path class="st1" d="M366.5,47.1c2.6,0,5.1-0.5,7.2-1.5c2.2-1,4.1-2.3,5.7-4c1.6-1.7,2.9-3.5,3.8-5.7c0.9-2.1,1.4-4.3,1.4-6.6
	c0-2.3-0.5-4.5-1.4-6.6c-0.9-2.1-2.2-4-3.8-5.7c-1.6-1.7-3.6-3-5.7-4c-2.2-1-4.6-1.5-7.2-1.5h-5.4h-11.7h-12.9V1.3h28.5
	c7.2,0,13.5,1.5,18.9,4.6c3.1,1.8,5.8,4,8,6.6c2.2,2.6,3.9,5.5,5,8.7c0.3,0.8,0.5,1.5,0.6,2.1c0,0.2,0,0.4,0.1,0.4
	c0.1,0.4,0.1,0.9,0.2,1.3c0,0.4,0.1,0.8,0.2,1.2v0.2c0.1,0.4,0.1,0.9,0.2,1.3c0,0.4,0.1,0.9,0.1,1.4v0.2c0,0.5,0,1-0.1,1.4
	c0,0.4-0.1,0.9-0.2,1.3l-0.4,2.7c-0.1,0.1-0.1,0.2-0.1,0.4c-0.1,0.4-0.2,0.7-0.2,1c-0.1,0.3-0.2,0.6-0.4,1c-1.1,3.3-2.8,6.3-5,8.9
	c-2.2,2.6-4.9,4.8-8,6.6c-2.6,1.4-5.6,2.6-8.7,3.4c-3.2,0.8-6.6,1.2-10.2,1.2h-15.7v5.5v17.9h-12.8V47.1v-0.4l12.8,0.4h11.9H366.5z"
	/>
<path class="st0" d="M289.3,1.6h12.6v52.9c0,3.7-0.8,7.1-2.3,10.3c-1.6,3.2-3.7,5.9-6.4,8.3c-2.7,2.3-5.9,4.2-9.5,5.6
	c-3.6,1.4-7.5,2.1-11.6,2.1c-4.1,0-7.9-0.7-11.4-2.1c-3.6-1.4-6.7-3.2-9.3-5.6c-2.7-2.3-4.8-5.1-6.3-8.3c-1.5-3.2-2.3-6.6-2.3-10.3
	V1.6h12.6v52.9c0,2.1,0.4,4,1.3,5.9c0.9,1.8,2.1,3.5,3.6,4.9c1.5,1.4,3.3,2.5,5.4,3.3c2.1,0.8,4.3,1.2,6.6,1.2
	c2.4,0,4.6-0.4,6.7-1.2c2.1-0.8,3.9-1.9,5.5-3.3c1.6-1.4,2.8-3,3.7-4.9c0.9-1.8,1.3-3.8,1.3-5.9V1.6z"/>
<polygon class="st1" points="707.5,28 678.5,80.6 664.5,80.6 707.5,1.5 750.6,80.6 742.3,80.6 736.6,80.6 707.5,80.6 707.5,68.4 
	729.8,68.4 "/>
<rect x="433.8" y="1.8" class="st1" width="60" height="11.1"/>
<rect x="433.8" y="69.5" class="st1" width="60" height="11.1"/>
<rect x="433.8" y="34.5" class="st1" width="30.8" height="11.1"/>
<rect x="336.4" y="4.5" class="st1" width="12.7" height="15.4"/>
<rect x="433.8" y="34.6" class="st1" width="12.7" height="41.9"/>
<path class="st1" d="M542.3,49.4v31.2h-12.8v-46L542.3,49.4z M529.6,16.8L529.5,0l49.8,54.3L629.1,0v80.6H617v-50l-29.4,32.7
	l-8.3,9.2l-8.3-9.2L529.6,16.8z"/>
<polygon class="st1" points="266.7,113.2 266.7,118.1 273.9,118.1 273.9,121.1 266.7,121.1 266.7,126.4 275,126.4 275,129.4 
	263.7,129.4 263.7,110.3 275,110.3 275,113.2 "/>
<polygon class="st1" points="317.7,110.2 317.7,129.7 317.5,129.7 305.3,117 305.3,129.4 302.3,129.4 302.3,110 302.5,110 
	314.7,122.7 314.7,110.2 "/>
<path class="st1" d="M363.6,120.4c0,5.7-4.1,9.2-9.1,9.2c-5.5,0-9.9-4.4-9.9-9.8c0-5.4,4.4-9.9,9.8-9.9c2.4,0,5.1,1.2,6.9,2.9
	l-1.7,2.5c-1.5-1.5-3.5-2.4-5.3-2.4c-3.5,0-6.8,2.9-6.8,6.9c0,3.7,3,6.8,7,6.8c3.3,0,5.7-2,5.7-4.9v-0.1h-5.9v-2.7h9
	C363.6,119.4,363.6,119.9,363.6,120.4"/>
<polygon class="st1" points="393.6,113.2 393.6,118.1 400.8,118.1 400.8,121.1 393.6,121.1 393.6,126.4 401.9,126.4 401.9,129.4 
	390.6,129.4 390.6,110.3 401.9,110.3 401.9,113.2 "/>
<polygon class="st1" points="444.6,110.2 444.6,129.7 444.4,129.7 432.3,117 432.3,129.4 429.3,129.4 429.3,110 429.4,110 
	441.6,122.7 441.6,110.2 "/>
<polygon class="st1" points="486.7,110.3 486.7,129.4 483.7,129.4 483.7,121.3 475.4,121.3 475.4,129.4 472.5,129.4 472.5,110.3 
	475.4,110.3 475.4,118.3 483.7,118.3 483.7,110.3 "/>
<path class="st1" d="M526.6,126.5h-9l-1.3,2.9H513l9-19.4h0.2l9,19.4h-3.2L526.6,126.5z M525.4,123.9l-3.3-7.4l-3.4,7.4H525.4z"/>
<path class="st1" d="M567.9,129.4l-5.1-7.4h-2.3v7.4h-3l0-19.1h5.9c3.5,0,6.5,2.7,6.5,6.1c0,2.5-1.6,4.6-3.8,5.3l5.5,7.6H567.9z
	 M563.4,119.5c1.8,0,3.3-1.4,3.3-3.1c0-1.8-1.5-3.1-3.3-3.1h-3v6.2H563.4z"/>
<rect x="597.8" y="110.3" class="st1" width="3" height="19.1"/>
<path class="st1" d="M640.7,126.5h-9l-1.3,2.9h-3.2l9-19.4h0.2l9,19.4H642L640.7,126.5z M639.5,123.9l-3.3-7.4l-3.4,7.4H639.5z"/>
<path class="st1" d="M130.8,1.7l-15.6,0.2L72.1,54.7l-6.7,8.4l-6.7-8.4L15.6,1.8L0,1.7l50.3,63.7L0,129h56.1h18.6h56.1L80.5,65.3
	L130.8,1.7z M102.4,113.5H74.7H56.1H28.4l30.3-37.6l6.7-8.4l6.7,8.4L102.4,113.5z"/>
<polygon class="st1" points="98.7,2 74.7,2 56.1,2 32.1,2 65.4,43 "/>
</svg>
